# xmcd CD database file
#
# Track frame offsets:
#	187
#	29350
#	51400
#	74705
#
# Disc length: 1342 seconds
#
# Revision: 0
# Processed by: cddbd v1.5.2PL0 Copyright (c) Steve Scherf et al.
# Submitted via: CDex 2.15
#
DISCID=3a053c04
DTITLE=Delfeayo Marsalis - Pontius Pilate's Decision Radio Edits
DYEAR=1992
DGENRE=Jazz
TTITLE0=The Weary Ways Of Mary Magdalene
TTITLE1=Adam's Ecstasy - Eve's Delight
TTITLE2=Nicodemus
TTITLE3=Reverent Judas Iscariot
EXTD=YEAR: 1992
EXTT0=
EXTT1=
EXTT2=
EXTT3=
PLAYORDER=
